<svg width="24" height="24" viewBox="0 0 24 24" fill="none" xmlns="http://www.w3.org/2000/svg">
<path fill-rule="evenodd" clip-rule="evenodd" d="M16.7885 5.78769C16.7885 8.43187 14.645 10.5754 12.0008 10.5754C9.35664 10.5754 7.21311 8.43187 7.21311 5.78769C7.21311 3.1435 9.35664 0.999969 12.0008 0.999969C14.645 0.999969 16.7885 3.1435 16.7885 5.78769ZM14.4917 11.0135C16.4415 10.0824 17.7885 8.09237 17.7885 5.78769C17.7885 2.59122 15.1973 -3.05176e-05 12.0008 -3.05176e-05C8.80436 -3.05176e-05 6.21311 2.59122 6.21311 5.78769C6.21311 8.09238 7.56019 10.0824 9.50995 11.0135C5.45621 12.4246 2.40447 17.199 2.08737 22.9994C2.05722 23.5509 2.50783 24 3.06012 24H20.9416C21.4939 24 21.9445 23.5509 21.9143 22.9994C21.5972 17.199 18.5455 12.4245 14.4917 11.0135ZM17.9976 14.814C19.6217 16.8582 20.724 19.736 20.9128 23H3.08892C3.27767 19.736 4.37998 16.8582 6.00409 14.814C7.63596 12.76 9.7521 11.589 12.0008 11.589C14.2496 11.589 16.3657 12.76 17.9976 14.814Z" fill="currentColor"/>
</svg>
