<svg width="18" height="19" viewBox="0 0 18 19" fill="none" xmlns="http://www.w3.org/2000/svg">
<path d="M16.3125 5.52197V13.397C16.3125 14.329 15.557 15.0845 14.625 15.0845H3.375C2.44302 15.0845 1.6875 14.329 1.6875 13.397V5.52197M16.3125 5.52197C16.3125 4.58999 15.557 3.83447 14.625 3.83447H3.375C2.44302 3.83447 1.6875 4.58999 1.6875 5.52197M16.3125 5.52197V5.70401C16.3125 6.29001 16.0085 6.83406 15.5094 7.14118L9.88441 10.6027C9.34204 10.9365 8.65796 10.9365 8.11559 10.6027L2.49059 7.14118C1.99151 6.83406 1.6875 6.29001 1.6875 5.70401V5.52197" stroke="white" stroke-width="1.5" stroke-linecap="round" stroke-linejoin="round"/>
</svg>
