<svg width="18" height="19" viewBox="0 0 18 19" fill="none" xmlns="http://www.w3.org/2000/svg">
<path d="M1.6875 5.52197C1.6875 11.7352 6.7243 16.772 12.9375 16.772H14.625C15.557 16.772 16.3125 16.0165 16.3125 15.0845V14.0558C16.3125 13.6686 16.049 13.3311 15.6734 13.2372L12.356 12.4078C12.0267 12.3255 11.68 12.4486 11.4764 12.7202L10.7487 13.6904C10.5375 13.972 10.1723 14.0965 9.84176 13.9754C7.36154 13.0669 5.39262 11.0979 4.48407 8.61772C4.363 8.28722 4.48752 7.92196 4.7691 7.71077L5.73932 6.98311C6.0109 6.77942 6.13396 6.43281 6.05162 6.10347L5.22228 2.78608C5.12838 2.41047 4.79089 2.14697 4.40372 2.14697H3.375C2.44302 2.14697 1.6875 2.90249 1.6875 3.83447V5.52197Z" stroke="white" stroke-width="1.5" stroke-linecap="round" stroke-linejoin="round"/>
</svg>
