<svg width="16" height="17" viewBox="0 0 16 17" fill="none" xmlns="http://www.w3.org/2000/svg">
<path fill-rule="evenodd" clip-rule="evenodd" d="M5.38317 4.53876C5.38317 3.05075 6.58944 1.84448 8.07744 1.84448C9.56545 1.84448 10.7717 3.05075 10.7717 4.53876V5.25873H5.38317V4.53876ZM4.38317 6.25873V7.8204H5.38317V6.25873H10.7717V7.8204H11.7717V6.25873H13.8145V15.9889H2.18359V6.25873H4.38317ZM4.38317 5.25873V4.53876C4.38317 2.49847 6.03715 0.844482 8.07744 0.844482C10.1177 0.844482 11.7717 2.49847 11.7717 4.53876V5.25873H13.8145H14.8145V6.25873V15.9889V16.9889H13.8145H2.18359H1.18359V15.9889V6.25873V5.25873H2.18359H4.38317Z" fill="currentColor"/>
</svg>
