<svg width="18" height="19" viewBox="0 0 18 19" fill="none" xmlns="http://www.w3.org/2000/svg">
<path d="M6.46875 9.45947C6.46875 9.6148 6.34283 9.74072 6.1875 9.74072C6.03217 9.74072 5.90625 9.6148 5.90625 9.45947C5.90625 9.30414 6.03217 9.17822 6.1875 9.17822C6.34283 9.17822 6.46875 9.30414 6.46875 9.45947ZM6.46875 9.45947H6.1875M9.28125 9.45947C9.28125 9.6148 9.15533 9.74072 9 9.74072C8.84467 9.74072 8.71875 9.6148 8.71875 9.45947C8.71875 9.30414 8.84467 9.17822 9 9.17822C9.15533 9.17822 9.28125 9.30414 9.28125 9.45947ZM9.28125 9.45947H9M12.0938 9.45947C12.0938 9.6148 11.9678 9.74072 11.8125 9.74072C11.6572 9.74072 11.5312 9.6148 11.5312 9.45947C11.5312 9.30414 11.6572 9.17822 11.8125 9.17822C11.9678 9.17822 12.0938 9.30414 12.0938 9.45947ZM12.0938 9.45947H11.8125M15.75 9.45947C15.75 12.8767 12.7279 15.647 9 15.647C8.3344 15.647 7.6913 15.5587 7.08388 15.3941C6.35262 15.9079 5.46151 16.2095 4.5 16.2095C4.35059 16.2095 4.20282 16.2022 4.05725 16.188C3.9375 16.1763 3.81885 16.1599 3.70184 16.139C4.06449 15.7109 4.32208 15.1915 4.43541 14.6201C4.5034 14.2773 4.33553 13.9444 4.08513 13.7007C2.94728 12.5931 2.25 11.1009 2.25 9.45947C2.25 6.04221 5.27208 3.27197 9 3.27197C12.7279 3.27197 15.75 6.04221 15.75 9.45947Z" stroke="white" stroke-width="1.5" stroke-linecap="round" stroke-linejoin="round"/>
</svg>
