<svg width="16" height="17" viewBox="0 0 16 17" fill="none" xmlns="http://www.w3.org/2000/svg">
<path d="M7.25 13.75L7.25 8H8.75L8.75 13.75C8.75 14.1642 8.41421 14.5 8 14.5C7.58579 14.5 7.25 14.1642 7.25 13.75Z" fill="currentColor"/>
<path d="M8.75 3.25V5.5L9.5 5.5C9.91421 5.5 10.25 5.83579 10.25 6.25C10.25 6.66421 9.91421 7 9.5 7H6.5C6.08579 7 5.75 6.66421 5.75 6.25C5.75 5.83579 6.08579 5.5 6.5 5.5H7.25V3.25C7.25 2.83579 7.58579 2.5 8 2.5C8.41421 2.5 8.75 2.83579 8.75 3.25Z" fill="currentColor"/>
<path d="M2.25 10C1.83579 10 1.5 10.3358 1.5 10.75C1.5 11.1642 1.83579 11.5 2.25 11.5H5.25C5.66421 11.5 6 11.1642 6 10.75C6 10.3358 5.66421 10 5.25 10H4.5L4.5 3.25C4.5 2.83579 4.16421 2.5 3.75 2.5C3.33579 2.5 3 2.83579 3 3.25L3 10H2.25Z" fill="currentColor"/>
<path d="M10 10.75C10 10.3358 10.3358 10 10.75 10H11.5L11.5 3.25C11.5 2.83579 11.8358 2.5 12.25 2.5C12.6642 2.5 13 2.83579 13 3.25L13 10H13.75C14.1642 10 14.5 10.3358 14.5 10.75C14.5 11.1642 14.1642 11.5 13.75 11.5H10.75C10.3358 11.5 10 11.1642 10 10.75Z" fill="currentColor"/>
<path d="M3 12.5L3 13.75C3 14.1642 3.33579 14.5 3.75 14.5C4.16421 14.5 4.5 14.1642 4.5 13.75V12.5H3Z" fill="currentColor"/>
<path d="M11.5 13.75V12.5H13V13.75C13 14.1642 12.6642 14.5 12.25 14.5C11.8358 14.5 11.5 14.1642 11.5 13.75Z" fill="currentColor"/>
</svg>

