<svg width="24" height="24" viewBox="0 0 24 24" fill="none" xmlns="http://www.w3.org/2000/svg">
<path fill-rule="evenodd" clip-rule="evenodd" d="M7.8267 5.30808C7.8267 2.93799 9.74803 1.01666 12.1181 1.01666C14.4882 1.01666 16.4095 2.93799 16.4095 5.30808V6.38803H7.8267V5.30808ZM6.8267 7.38803V10.2305H7.8267V7.38803H16.4095V10.2305H17.4095V7.38803H21.2237V22.9833H2.77734V7.38803H6.8267ZM6.8267 6.38803V5.30808C6.8267 2.38571 9.19575 0.0166626 12.1181 0.0166626C15.0405 0.0166626 17.4095 2.38571 17.4095 5.30808V6.38803H21.2237H22.2237V7.38803V22.9833V23.9833H21.2237H2.77734H1.77734V22.9833V7.38803V6.38803H2.77734H6.8267Z" fill="currentColor"/>
</svg>
